<svg xmlns="http://www.w3.org/2000/svg" viewBox="0 0 512 512">
  <rect width="512" height="512" rx="108" fill="#4f46e5"/>
  <path d="M256 120c-88 0-160 72-160 160 0 28 7 54 20 77l-20 75 77-20c23 13 49 20 77 20 88 0 160-72 160-160S344 120 256 120zm0 288c-24 0-47-6-67-18l-5-3-48 12 12-47-3-5a132 132 0 010-99c20-35 58-57 99-57 70 0 127 57 127 127s-57 127-127 127z" fill="white"/>
  <circle cx="200" cy="256" r="20" fill="white"/>
  <circle cx="256" cy="256" r="20" fill="white"/>
  <circle cx="312" cy="256" r="20" fill="white"/>
</svg>
